<?xml version="1.0" encoding="UTF-8" standalone="no"?>
<svg xmlns="http://www.w3.org/2000/svg" xmlns:xlink="http://www.w3.org/1999/xlink" width="800" height="600" viewBox="0 0 800 600">
  <style>
    @import url('https://fonts.googleapis.com/css2?family=Noto+Sans+KR:wght@400;700&amp;display=swap');
    
    .title {
      font-family: 'Noto Sans KR', sans-serif;
      font-size: 24px;
      font-weight: bold;
      text-anchor: middle;
    }
    
    .subtitle {
      font-family: 'Noto Sans KR', sans-serif;
      font-size: 14px;
      text-anchor: middle;
    }
    
    .stage {
      font-family: 'Noto Sans KR', sans-serif;
      font-size: 16px;
      font-weight: bold;
      text-anchor: middle;
      dominant-baseline: middle;
    }
    
    .description {
      font-family: 'Noto Sans KR', sans-serif;
      font-size: 12px;
      text-anchor: middle;
      dominant-baseline: middle;
    }
    
    .arrow {
      fill: none;
      stroke: #333;
      stroke-width: 2;
      marker-end: url(#arrowhead);
    }
    
    .acquisition {
      fill: #e2f1ff;
    }
    
    .preprocessing {
      fill: #d1e7dd;
    }
    
    .feature {
      fill: #fff3cd;
    }
    
    .analysis {
      fill: #f8d7da;
    }
    
    .prediction {
      fill: #cff4fc;
    }
    
    .plot {
      fill: white;
      stroke: #999;
      stroke-width: 1.5;
    }
    
    .signal-line {
      fill: none;
      stroke: #0d6efd;
      stroke-width: 2;
    }
    
    .spike {
      fill: none;
      stroke: #dc3545;
      stroke-width: 2;
    }
    
    .feature-point {
      fill: #198754;
      r: 3;
    }
  </style>
  
  <defs>
    <marker id="arrowhead" markerWidth="10" markerHeight="7" refX="9" refY="3.5" orient="auto">
      <polygon points="0 0, 10 3.5, 0 7" fill="#333" />
    </marker>
    
    <!-- Signal Plot -->
    <g id="raw-signal">
      <rect x="0" y="0" width="120" height="70" class="plot" />
      <polyline points="10,35 20,40 30,30 40,45 50,35 60,25 70,35 80,55 90,25 100,30 110,40" class="signal-line" />
      <line x1="10" y1="65" x2="110" y2="65" stroke="#999" />
      <line x1="10" y1="5" x2="10" y2="65" stroke="#999" />
      <text x="60" y="15" class="description">Raw Signal</text>
    </g>
    
    <!-- Filtered Signal Plot -->
    <g id="filtered-signal">
      <rect x="0" y="0" width="120" height="70" class="plot" />
      <polyline points="10,35 20,38 30,32 40,42 50,35 60,28 70,35 80,45 90,25 100,32 110,35" class="signal-line" />
      <line x1="10" y1="65" x2="110" y2="65" stroke="#999" />
      <line x1="10" y1="5" x2="10" y2="65" stroke="#999" />
      <text x="60" y="15" class="description">Filtered Signal</text>
    </g>
    
    <!-- Feature Extraction Plot -->
    <g id="feature-extraction">
      <rect x="0" y="0" width="120" height="70" class="plot" />
      <polyline points="10,35 20,38 30,32 40,42 50,35 60,28 70,35 80,45 90,25 100,32 110,35" class="signal-line" />
      <circle cx="30" cy="32" class="feature-point" />
      <circle cx="60" cy="28" class="feature-point" />
      <circle cx="80" cy="45" class="feature-point" />
      <circle cx="90" cy="25" class="feature-point" />
      <line x1="10" y1="65" x2="110" y2="65" stroke="#999" />
      <line x1="10" y1="5" x2="10" y2="65" stroke="#999" />
      <text x="60" y="15" class="description">Feature Extraction</text>
    </g>
    
    <!-- Spike Detection Plot -->
    <g id="spike-detection">
      <rect x="0" y="0" width="120" height="70" class="plot" />
      <polyline points="10,35 20,38 30,32 40,42 50,35 60,28 70,35 80,45 90,25 100,32 110,35" class="signal-line" />
      <line x1="80" y1="20" x2="80" y2="50" class="spike" />
      <line x1="90" y1="20" x2="90" y2="50" class="spike" />
      <line x1="10" y1="65" x2="110" y2="65" stroke="#999" />
      <line x1="10" y1="5" x2="10" y2="65" stroke="#999" />
      <text x="60" y="15" class="description">Spike Detection</text>
    </g>
    
    <!-- Prediction Plot -->
    <g id="prediction-plot">
      <rect x="0" y="0" width="120" height="70" class="plot" />
      <polyline points="10,35 20,38 30,32 40,42 50,35 60,28 70,35 80,45 90,25 100,32 110,35" class="signal-line" />
      <polyline points="80,45 90,38 100,42 110,30 120,35" stroke="#dc3545" stroke-dasharray="3,3" />
      <line x1="10" y1="65" x2="110" y2="65" stroke="#999" />
      <line x1="10" y1="5" x2="10" y2="65" stroke="#999" />
      <text x="60" y="15" class="description">Signal Prediction</text>
    </g>
  </defs>
  
  <!-- Title -->
  <text x="400" y="40" class="title">신경 신호 처리 및 분석 파이프라인</text>
  <text x="400" y="65" class="subtitle">실시간 신경 신호 모니터링부터 예측 모델링까지</text>
  
  <!-- Stage 1: Signal Acquisition -->
  <rect x="50" y="100" width="180" height="120" rx="10" class="acquisition" />
  <text x="140" y="125" class="stage">신호 획득</text>
  <text x="140" y="145" class="description">전극 또는 임플란트로부터</text>
  <text x="140" y="165" class="description">다채널 신경 활동 기록</text>
  <use xlink:href="#raw-signal" x="80" y="180" />
  
  <!-- Stage 2: Signal Preprocessing -->
  <rect x="310" y="100" width="180" height="120" rx="10" class="preprocessing" />
  <text x="400" y="125" class="stage">신호 전처리</text>
  <text x="400" y="145" class="description">노이즈 제거, 필터링</text>
  <text x="400" y="165" class="description">아티팩트 제거</text>
  <use xlink:href="#filtered-signal" x="340" y="180" />
  
  <!-- Stage 3: Feature Extraction -->
  <rect x="570" y="100" width="180" height="120" rx="10" class="feature" />
  <text x="660" y="125" class="stage">특성 추출</text>
  <text x="660" y="145" class="description">시간 및 주파수 도메인 특성</text>
  <text x="660" y="165" class="description">스펙트럼 엔트로피 등</text>
  <use xlink:href="#feature-extraction" x="600" y="180" />
  
  <!-- Stage 4: Signal Analysis -->
  <rect x="180" y="300" width="180" height="120" rx="10" class="analysis" />
  <text x="270" y="325" class="stage">신호 분석</text>
  <text x="270" y="345" class="description">스파이크 검출 및 분류</text>
  <text x="270" y="365" class="description">발화율 계산</text>
  <use xlink:href="#spike-detection" x="210" y="380" />
  
  <!-- Stage 5: Prediction Modeling -->
  <rect x="440" y="300" width="180" height="120" rx="10" class="prediction" />
  <text x="530" y="325" class="stage">예측 모델링</text>
  <text x="530" y="345" class="description">LSTM 기반 시계열 예측</text>
  <text x="530" y="365" class="description">신경 반응 패턴 예측</text>
  <use xlink:href="#prediction-plot" x="470" y="380" />
  
  <!-- Result Module -->
  <rect x="310" y="480" width="180" height="80" rx="10" fill="#e2daf5" />
  <text x="400" y="510" class="stage">신경 상태 평가</text>
  <text x="400" y="530" class="description">재생 정도 및 자극 효과 측정</text>
  
  <!-- Arrows -->
  <!-- From Signal Acquisition to Preprocessing -->
  <path d="M 230 160 L 310 160" class="arrow" />
  
  <!-- From Preprocessing to Feature Extraction -->
  <path d="M 490 160 L 570 160" class="arrow" />
  
  <!-- From Feature Extraction to Analysis -->
  <path d="M 660 220 C 660 260 400 260 270 300" class="arrow" />
  
  <!-- From Preprocessing to Analysis -->
  <path d="M 400 220 L 270 300" class="arrow" />
  
  <!-- From Analysis to Prediction -->
  <path d="M 360 360 L 440 360" class="arrow" />
  
  <!-- From Prediction to Result -->
  <path d="M 530 420 L 400 480" class="arrow" />
  
  <!-- From Analysis to Result -->
  <path d="M 270 420 L 400 480" class="arrow" />
  
  <!-- Feature Extraction to Prediction -->
  <path d="M 660 220 C 660 240 600 280 530 300" class="arrow" />
</svg>
