<?xml version="1.0" encoding="UTF-8"?>
<svg width="900" height="500" xmlns="http://www.w3.org/2000/svg">
  <!-- Background -->
  <rect width="900" height="500" fill="#f8f9fa" />

  <!-- Title and Description -->
  <text x="450" y="30" font-family="Arial" font-size="20" text-anchor="middle" fill="#2c3e50" font-weight="bold">자극 파라미터 최적화 학습 과정</text>
  <text x="450" y="55" font-family="Arial" font-size="14" text-anchor="middle" fill="#34495e">강화학습을 통한 전기자극 파라미터 최적화 시뮬레이션 결과</text>

  <!-- Axes -->
  <line x1="100" y1="400" x2="850" y2="400" stroke="#2c3e50" stroke-width="2" />
  <line x1="100" y1="400" x2="100" y2="100" stroke="#2c3e50" stroke-width="2" />

  <!-- X axis ticks and labels -->
  <line x1="100" y1="400" x2="100" y2="405" stroke="#2c3e50" stroke-width="1" />
  <text x="100" y="425" font-family="Arial" font-size="12" text-anchor="middle" fill="#2c3e50">0</text>

  <line x1="175" y1="400" x2="175" y2="405" stroke="#2c3e50" stroke-width="1" />
  <text x="175" y="425" font-family="Arial" font-size="12" text-anchor="middle" fill="#2c3e50">50</text>

  <line x1="250" y1="400" x2="250" y2="405" stroke="#2c3e50" stroke-width="1" />
  <text x="250" y="425" font-family="Arial" font-size="12" text-anchor="middle" fill="#2c3e50">100</text>

  <line x1="325" y1="400" x2="325" y2="405" stroke="#2c3e50" stroke-width="1" />
  <text x="325" y="425" font-family="Arial" font-size="12" text-anchor="middle" fill="#2c3e50">150</text>

  <line x1="400" y1="400" x2="400" y2="405" stroke="#2c3e50" stroke-width="1" />
  <text x="400" y="425" font-family="Arial" font-size="12" text-anchor="middle" fill="#2c3e50">200</text>

  <line x1="475" y1="400" x2="475" y2="405" stroke="#2c3e50" stroke-width="1" />
  <text x="475" y="425" font-family="Arial" font-size="12" text-anchor="middle" fill="#2c3e50">250</text>

  <line x1="550" y1="400" x2="550" y2="405" stroke="#2c3e50" stroke-width="1" />
  <text x="550" y="425" font-family="Arial" font-size="12" text-anchor="middle" fill="#2c3e50">300</text>

  <line x1="625" y1="400" x2="625" y2="405" stroke="#2c3e50" stroke-width="1" />
  <text x="625" y="425" font-family="Arial" font-size="12" text-anchor="middle" fill="#2c3e50">350</text>

  <line x1="700" y1="400" x2="700" y2="405" stroke="#2c3e50" stroke-width="1" />
  <text x="700" y="425" font-family="Arial" font-size="12" text-anchor="middle" fill="#2c3e50">400</text>

  <line x1="775" y1="400" x2="775" y2="405" stroke="#2c3e50" stroke-width="1" />
  <text x="775" y="425" font-family="Arial" font-size="12" text-anchor="middle" fill="#2c3e50">450</text>

  <line x1="850" y1="400" x2="850" y2="405" stroke="#2c3e50" stroke-width="1" />
  <text x="850" y="425" font-family="Arial" font-size="12" text-anchor="middle" fill="#2c3e50">500</text>

  <!-- X axis label -->
  <text x="475" y="455" font-family="Arial" font-size="14" text-anchor="middle" fill="#2c3e50">학습 단계 (에피소드)</text>

  <!-- Y axis ticks and labels -->
  <line x1="95" y1="400" x2="100" y2="400" stroke="#2c3e50" stroke-width="1" />
  <text x="85" y="405" font-family="Arial" font-size="12" text-anchor="end" fill="#2c3e50">0</text>

  <line x1="95" y1="340" x2="100" y2="340" stroke="#2c3e50" stroke-width="1" />
  <text x="85" y="345" font-family="Arial" font-size="12" text-anchor="end" fill="#2c3e50">20</text>

  <line x1="95" y1="280" x2="100" y2="280" stroke="#2c3e50" stroke-width="1" />
  <text x="85" y="285" font-family="Arial" font-size="12" text-anchor="end" fill="#2c3e50">40</text>

  <line x1="95" y1="220" x2="100" y2="220" stroke="#2c3e50" stroke-width="1" />
  <text x="85" y="225" font-family="Arial" font-size="12" text-anchor="end" fill="#2c3e50">60</text>

  <line x1="95" y1="160" x2="100" y2="160" stroke="#2c3e50" stroke-width="1" />
  <text x="85" y="165" font-family="Arial" font-size="12" text-anchor="end" fill="#2c3e50">80</text>

  <line x1="95" y1="100" x2="100" y2="100" stroke="#2c3e50" stroke-width="1" />
  <text x="85" y="105" font-family="Arial" font-size="12" text-anchor="end" fill="#2c3e50">100</text>

  <!-- Y axis label -->
  <text x="45" y="250" font-family="Arial" font-size="14" text-anchor="middle" fill="#2c3e50" transform="rotate(-90, 45, 250)">보상 점수</text>

  <!-- Data Line - DQN Agent Learning Curve -->
  <polyline 
    points="
      100,380
      125,375
      150,372
      175,365
      200,350
      225,348
      250,338
      275,330
      300,315
      325,295
      350,280
      375,275
      400,265
      425,245
      450,230
      475,215
      500,200
      525,190
      550,185
      575,175
      600,165
      625,155
      650,145
      675,140
      700,135
      725,130
      750,120
      775,118
      800,115
      825,112
      850,110
    "
    fill="none"
    stroke="#3498db"
    stroke-width="3"
    stroke-linejoin="round"
    stroke-linecap="round"
  />
  
  <!-- Moving Average Line -->
  <polyline 
    points="
      100,380
      125,378
      150,374
      175,368
      200,360
      225,352
      250,345
      275,335
      300,325
      325,310
      350,300
      375,285
      400,270
      425,260
      450,245
      475,232
      500,220
      525,210
      550,195
      575,185
      600,175
      625,168
      650,160
      675,152
      700,145
      725,140
      750,134
      775,130
      800,125
      825,120
      850,118
    "
    fill="none"
    stroke="#e74c3c"
    stroke-width="2"
    stroke-dasharray="6,3"
    stroke-linejoin="round"
    stroke-linecap="round"
  />

  <!-- Annotations - Key Improvement Phases -->
  <line x1="200" y1="350" x2="200" y2="300" stroke="#2ecc71" stroke-width="1" stroke-dasharray="5,2" />
  <circle cx="200" cy="350" r="4" fill="#2ecc71" />
  <text x="200" y="290" font-family="Arial" font-size="11" text-anchor="middle" fill="#2ecc71">탐색 단계</text>
  
  <line x1="400" y1="265" x2="400" y2="215" stroke="#9b59b6" stroke-width="1" stroke-dasharray="5,2" />
  <circle cx="400" cy="265" r="4" fill="#9b59b6" />
  <text x="400" y="205" font-family="Arial" font-size="11" text-anchor="middle" fill="#9b59b6">학습 가속화</text>
  
  <line x1="600" y1="165" x2="600" y2="115" stroke="#f39c12" stroke-width="1" stroke-dasharray="5,2" />
  <circle cx="600" cy="165" r="4" fill="#f39c12" />
  <text x="600" y="105" font-family="Arial" font-size="11" text-anchor="middle" fill="#f39c12">안정화 단계</text>

  <line x1="800" y1="115" x2="800" y2="65" stroke="#16a085" stroke-width="1" stroke-dasharray="5,2" />
  <circle cx="800" cy="115" r="4" fill="#16a085" />
  <text x="800" y="55" font-family="Arial" font-size="11" text-anchor="middle" fill="#16a085">수렴 단계</text>

  <!-- Legend -->
  <rect x="650" y="80" width="200" height="70" rx="5" ry="5" fill="white" stroke="#2c3e50" stroke-width="1" opacity="0.9" />
  <line x1="670" y1="100" x2="700" y2="100" stroke="#3498db" stroke-width="3" />
  <text x="710" y="105" font-family="Arial" font-size="12" fill="#2c3e50">에피소드별 보상</text>
  
  <line x1="670" y1="130" x2="700" y2="130" stroke="#e74c3c" stroke-width="2" stroke-dasharray="6,3" />
  <text x="710" y="135" font-family="Arial" font-size="12" fill="#2c3e50">50-에피소드 이동평균</text>
  
  <!-- Parameter Trends - Small Charts -->
  <g transform="translate(130, 170) scale(0.8)">
    <rect x="0" y="0" width="160" height="120" fill="white" stroke="#2c3e50" stroke-width="1" rx="5" ry="5" />
    <text x="80" y="20" font-family="Arial" font-size="12" text-anchor="middle" fill="#2c3e50" font-weight="bold">진폭 변화 추이</text>
    
    <!-- Mini chart axes -->
    <line x1="20" y1="100" x2="140" y2="100" stroke="#2c3e50" stroke-width="1" />
    <line x1="20" y1="100" x2="20" y2="30" stroke="#2c3e50" stroke-width="1" />
    
    <!-- Mini chart data -->
    <polyline 
      points="
        20,80
        35,75
        50,70
        65,60
        80,55
        95,50
        110,45
        125,40
        140,40
      "
      fill="none"
      stroke="#3498db"
      stroke-width="2"
      stroke-linejoin="round"
    />
  </g>
  
  <g transform="translate(300, 170) scale(0.8)">
    <rect x="0" y="0" width="160" height="120" fill="white" stroke="#2c3e50" stroke-width="1" rx="5" ry="5" />
    <text x="80" y="20" font-family="Arial" font-size="12" text-anchor="middle" fill="#2c3e50" font-weight="bold">주파수 변화 추이</text>
    
    <!-- Mini chart axes -->
    <line x1="20" y1="100" x2="140" y2="100" stroke="#2c3e50" stroke-width="1" />
    <line x1="20" y1="100" x2="20" y2="30" stroke="#2c3e50" stroke-width="1" />
    
    <!-- Mini chart data -->
    <polyline 
      points="
        20,60
        35,65
        50,55
        65,50
        80,45
        95,40
        110,35
        125,30
        140,35
      "
      fill="none"
      stroke="#9b59b6"
      stroke-width="2"
      stroke-linejoin="round"
    />
  </g>
  
  <g transform="translate(470, 170) scale(0.8)">
    <rect x="0" y="0" width="160" height="120" fill="white" stroke="#2c3e50" stroke-width="1" rx="5" ry="5" />
    <text x="80" y="20" font-family="Arial" font-size="12" text-anchor="middle" fill="#2c3e50" font-weight="bold">펄스 폭 변화 추이</text>
    
    <!-- Mini chart axes -->
    <line x1="20" y1="100" x2="140" y2="100" stroke="#2c3e50" stroke-width="1" />
    <line x1="20" y1="100" x2="20" y2="30" stroke="#2c3e50" stroke-width="1" />
    
    <!-- Mini chart data -->
    <polyline 
      points="
        20,70
        35,75
        50,65
        65,60
        80,50
        95,55
        110,45
        125,40
        140,35
      "
      fill="none"
      stroke="#e74c3c"
      stroke-width="2"
      stroke-linejoin="round"
    />
  </g>
</svg>
