<?xml version="1.0" encoding="UTF-8" standalone="no"?>
<svg xmlns="http://www.w3.org/2000/svg" xmlns:xlink="http://www.w3.org/1999/xlink" width="800" height="600" viewBox="0 0 800 600">
  <style>
    @import url('https://fonts.googleapis.com/css2?family=Noto+Sans+KR:wght@400;700&amp;display=swap');
    
    .title {
      font-family: 'Noto Sans KR', sans-serif;
      font-size: 24px;
      font-weight: bold;
      text-anchor: middle;
    }
    
    .subtitle {
      font-family: 'Noto Sans KR', sans-serif;
      font-size: 14px;
      text-anchor: middle;
    }
    
    .module {
      font-family: 'Noto Sans KR', sans-serif;
      font-size: 16px;
      font-weight: bold;
      text-anchor: middle;
      dominant-baseline: middle;
    }
    
    .component {
      font-family: 'Noto Sans KR', sans-serif;
      font-size: 12px;
      text-anchor: middle;
      dominant-baseline: middle;
    }
    
    .arrow {
      fill: none;
      stroke: #333;
      stroke-width: 2;
      marker-end: url(#arrowhead);
    }
    
    .dashed {
      stroke-dasharray: 5, 5;
    }
    
    .nervous-system {
      fill: #e2f1ff;
    }
    
    .data-collection {
      fill: #d1e7dd;
    }
    
    .processing {
      fill: #fff3cd;
    }
    
    .decision {
      fill: #f8d7da;
    }
    
    .stimulation {
      fill: #cff4fc;
    }
    
    .feedback {
      fill: #e2daf5;
    }
  </style>
  
  <defs>
    <marker id="arrowhead" markerWidth="10" markerHeight="7" refX="9" refY="3.5" orient="auto">
      <polygon points="0 0, 10 3.5, 0 7" fill="#333" />
    </marker>
  </defs>
  
  <!-- Title -->
  <text x="400" y="40" class="title">적응형 신경 전기자극 시스템 개념도</text>
  <text x="400" y="65" class="subtitle">실시간 신경 신호 모니터링 및 강화학습 기반 전기자극 최적화</text>
  
  <!-- Nervous System Module -->
  <rect x="50" y="120" width="180" height="120" rx="10" class="nervous-system" />
  <text x="140" y="145" class="module">신경계</text>
  <rect x="70" y="160" width="140" height="30" rx="5" fill="white" stroke="#999" />
  <text x="140" y="175" class="component">정상/손상 신경</text>
  <rect x="70" y="200" width="140" height="30" rx="5" fill="white" stroke="#999" />
  <text x="140" y="215" class="component">재생 중인 신경</text>
  
  <!-- Data Collection Module -->
  <rect x="300" y="120" width="180" height="120" rx="10" class="data-collection" />
  <text x="390" y="145" class="module">데이터 수집</text>
  <rect x="320" y="160" width="140" height="30" rx="5" fill="white" stroke="#999" />
  <text x="390" y="175" class="component">신호 수집</text>
  <rect x="320" y="200" width="140" height="30" rx="5" fill="white" stroke="#999" />
  <text x="390" y="215" class="component">노이즈 필터링</text>
  
  <!-- Signal Processing Module -->
  <rect x="300" y="280" width="180" height="120" rx="10" class="processing" />
  <text x="390" y="305" class="module">신호 처리 및 분석</text>
  <rect x="320" y="320" width="140" height="30" rx="5" fill="white" stroke="#999" />
  <text x="390" y="335" class="component">특성 추출</text>
  <rect x="320" y="360" width="140" height="30" rx="5" fill="white" stroke="#999" />
  <text x="390" y="375" class="component">LSTM 신호 예측</text>
  
  <!-- Decision Module -->
  <rect x="550" y="280" width="180" height="120" rx="10" class="decision" />
  <text x="640" y="305" class="module">의사결정 모듈</text>
  <rect x="570" y="320" width="140" height="30" rx="5" fill="white" stroke="#999" />
  <text x="640" y="335" class="component">강화학습(DQN) 에이전트</text>
  <rect x="570" y="360" width="140" height="30" rx="5" fill="white" stroke="#999" />
  <text x="640" y="375" class="component">자극 매개변수 최적화</text>
  
  <!-- Stimulation Module -->
  <rect x="550" y="120" width="180" height="120" rx="10" class="stimulation" />
  <text x="640" y="145" class="module">자극 제어</text>
  <rect x="570" y="160" width="140" height="30" rx="5" fill="white" stroke="#999" />
  <text x="640" y="175" class="component">자극 파형 생성</text>
  <rect x="570" y="200" width="140" height="30" rx="5" fill="white" stroke="#999" />
  <text x="640" y="215" class="component">안전 모니터링</text>
  
  <!-- Feedback Module -->
  <rect x="300" y="440" width="180" height="120" rx="10" class="feedback" />
  <text x="390" y="465" class="module">피드백 및 평가</text>
  <rect x="320" y="480" width="140" height="30" rx="5" fill="white" stroke="#999" />
  <text x="390" y="495" class="component">반응 모니터링</text>
  <rect x="320" y="520" width="140" height="30" rx="5" fill="white" stroke="#999" />
  <text x="390" y="535" class="component">성능 지표 계산</text>
  
  <!-- Arrows -->
  <!-- From Nervous System to Data Collection -->
  <path d="M 230 180 L 300 180" class="arrow" />
  
  <!-- From Data Collection to Signal Processing -->
  <path d="M 390 240 L 390 280" class="arrow" />
  
  <!-- From Signal Processing to Decision Module -->
  <path d="M 480 340 L 550 340" class="arrow" />
  
  <!-- From Decision Module to Stimulation Module -->
  <path d="M 640 280 L 640 240" class="arrow" />
  
  <!-- From Stimulation Module to Nervous System -->
  <path d="M 550 180 L 230 180" class="arrow" />
  
  <!-- From Signal Processing to Feedback Module -->
  <path d="M 390 400 L 390 440" class="arrow" />
  
  <!-- Feedback Loop -->
  <path d="M 300 500 C 250 500 250 340 300 340" class="arrow dashed" />
  
  <!-- Reinforcement Learning Loop -->
  <path d="M 550 500 C 500 500 500 400 550 400" class="arrow dashed" />
  <path d="M 480 500 L 300 500" class="arrow" />
  
  <!-- Legend -->
  <rect x="50" y="510" width="180" height="70" rx="5" fill="white" stroke="#999" />
  <text x="140" y="530" class="component" style="font-weight: bold">범례</text>
  <line x1="70" y1="545" x2="100" y2="545" class="arrow" />
  <text x="155" y="545" class="component" text-anchor="start">직접적인 데이터 흐름</text>
  <line x1="70" y1="565" x2="100" y2="565" class="arrow dashed" />
  <text x="155" y="565" class="component" text-anchor="start">피드백 및 학습 흐름</text>
</svg>
