<svg viewBox="0 0 1200 800" xmlns="http://www.w3.org/2000/svg">
  <!-- 배경 -->
  <rect width="1200" height="800" fill="#f8f9fa"/>
  
  <!-- 헤더 -->
  <rect width="1200" height="70" fill="#1a73e8"/>
  <text x="50" y="45" font-family="Arial, sans-serif" font-size="24" font-weight="bold" fill="white">적응형 신경 전기자극 시스템</text>
  
  <!-- 네비게이션 메뉴 -->
  <g transform="translate(600, 0)">
    <rect x="0" y="20" width="100" height="30" rx="5" fill="rgba(255,255,255,0.2)"/>
    <text x="50" y="40" font-family="Arial, sans-serif" font-size="14" text-anchor="middle" fill="white">대시보드</text>
    
    <rect x="110" y="20" width="100" height="30" rx="5" fill="rgba(255,255,255,0.2)"/>
    <text x="160" y="40" font-family="Arial, sans-serif" font-size="14" text-anchor="middle" fill="white">신호 모니터링</text>
    
    <rect x="220" y="20" width="100" height="30" rx="5" fill="rgba(255,255,255,0.2)"/>
    <text x="270" y="40" font-family="Arial, sans-serif" font-size="14" text-anchor="middle" fill="white">파라미터 제어</text>
    
    <rect x="330" y="20" width="100" height="30" rx="5" fill="rgba(255,255,255,0.2)"/>
    <text x="380" y="40" font-family="Arial, sans-serif" font-size="14" text-anchor="middle" fill="white">분석</text>
    
    <rect x="440" y="20" width="100" height="30" rx="5" fill="rgba(255,255,255,0.2)"/>
    <text x="490" y="40" font-family="Arial, sans-serif" font-size="14" text-anchor="middle" fill="white">설정</text>
  </g>
  
  <!-- 메인 콘텐츠 영역 -->
  <!-- 실시간 신호 모니터링 패널 -->
  <g transform="translate(30, 100)">
    <rect width="560" height="320" rx="10" fill="white" stroke="#e0e0e0" stroke-width="2"/>
    <text x="20" y="35" font-family="Arial, sans-serif" font-size="18" font-weight="bold">실시간 신경 신호</text>
    
    <!-- 신호 파형 시뮬레이션 -->
    <g transform="translate(20, 60)">
      <!-- 채널 1 -->
      <text x="0" y="15" font-family="Arial, sans-serif" font-size="12" fill="#666">Ch 1</text>
      <rect x="40" y="0" width="480" height="60" fill="#f5f5f5" stroke="#ddd"/>
      <path d="M 50 30 Q 100 10, 150 30 T 250 30 Q 300 50, 350 30 T 450 30" stroke="#1a73e8" stroke-width="2" fill="none"/>
      
      <!-- 채널 2 -->
      <text x="0" y="85" font-family="Arial, sans-serif" font-size="12" fill="#666">Ch 2</text>
      <rect x="40" y="70" width="480" height="60" fill="#f5f5f5" stroke="#ddd"/>
      <path d="M 50 100 Q 90 85, 130 100 T 230 100 Q 280 115, 330 100 T 430 100" stroke="#34a853" stroke-width="2" fill="none"/>
      
      <!-- 채널 3 -->
      <text x="0" y="155" font-family="Arial, sans-serif" font-size="12" fill="#666">Ch 3</text>
      <rect x="40" y="140" width="480" height="60" fill="#f5f5f5" stroke="#ddd"/>
      <path d="M 50 170 Q 110 150, 170 170 T 270 170 Q 320 190, 370 170 T 470 170" stroke="#ea4335" stroke-width="2" fill="none"/>
      
      <!-- 채널 4 -->
      <text x="0" y="225" font-family="Arial, sans-serif" font-size="12" fill="#666">Ch 4</text>
      <rect x="40" y="210" width="480" height="60" fill="#f5f5f5" stroke="#ddd"/>
      <path d="M 50 240 Q 80 220, 120 240 T 220 240 Q 260 260, 310 240 T 410 240" stroke="#fbbc04" stroke-width="2" fill="none"/>
    </g>
    
    <!-- 시간축 -->
    <text x="280" y="350" font-family="Arial, sans-serif" font-size="12" text-anchor="middle" fill="#666">시간 (초)</text>
  </g>
  
  <!-- 스펙트럼 분석 패널 -->
  <g transform="translate(610, 100)">
    <rect width="560" height="320" rx="10" fill="white" stroke="#e0e0e0" stroke-width="2"/>
    <text x="20" y="35" font-family="Arial, sans-serif" font-size="18" font-weight="bold">주파수 스펙트럼 분석</text>
    
    <!-- 스펙트로그램 -->
    <g transform="translate(40, 60)">
      <rect width="480" height="200" fill="url(#spectrogram)"/>
      <text x="240" y="280" font-family="Arial, sans-serif" font-size="12" text-anchor="middle" fill="#666">주파수 (Hz)</text>
      <text x="-100" y="130" font-family="Arial, sans-serif" font-size="12" text-anchor="middle" fill="#666" transform="rotate(-90)">파워 (dB)</text>
      
      <!-- 주파수 축 레이블 -->
      <text x="0" y="275" font-family="Arial, sans-serif" font-size="10" fill="#666">0</text>
      <text x="120" y="275" font-family="Arial, sans-serif" font-size="10" fill="#666">250</text>
      <text x="240" y="275" font-family="Arial, sans-serif" font-size="10" fill="#666">500</text>
      <text x="360" y="275" font-family="Arial, sans-serif" font-size="10" fill="#666">750</text>
      <text x="480" y="275" font-family="Arial, sans-serif" font-size="10" text-anchor="end" fill="#666">1000</text>
    </g>
    
    <!-- 주파수 대역 표시 -->
    <g transform="translate(40, 350)">
      <rect x="0" y="0" width="20" height="20" fill="#1a73e8"/>
      <text x="25" y="15" font-family="Arial, sans-serif" font-size="12" fill="#666">델타 (0.5-4 Hz)</text>
      
      <rect x="120" y="0" width="20" height="20" fill="#34a853"/>
      <text x="145" y="15" font-family="Arial, sans-serif" font-size="12" fill="#666">세타 (4-8 Hz)</text>
      
      <rect x="240" y="0" width="20" height="20" fill="#fbbc04"/>
      <text x="265" y="15" font-family="Arial, sans-serif" font-size="12" fill="#666">알파 (8-13 Hz)</text>
      
      <rect x="360" y="0" width="20" height="20" fill="#ea4335"/>
      <text x="385" y="15" font-family="Arial, sans-serif" font-size="12" fill="#666">베타 (13-30 Hz)</text>
    </g>
  </g>
  
  <!-- 자극 파라미터 제어 패널 -->
  <g transform="translate(30, 450)">
    <rect width="360" height="320" rx="10" fill="white" stroke="#e0e0e0" stroke-width="2"/>
    <text x="20" y="35" font-family="Arial, sans-serif" font-size="18" font-weight="bold">자극 파라미터 제어</text>
    
    <!-- 파라미터 슬라이더들 -->
    <g transform="translate(30, 70)">
      <!-- 주파수 -->
      <text x="0" y="15" font-family="Arial, sans-serif" font-size="14" fill="#333">주파수</text>
      <rect x="80" y="5" width="200" height="20" rx="10" fill="#e0e0e0"/>
      <circle cx="180" cy="15" r="12" fill="#1a73e8"/>
      <text x="290" y="18" font-family="Arial, sans-serif" font-size="14" fill="#666">50 Hz</text>
      
      <!-- 진폭 -->
      <text x="0" y="55" font-family="Arial, sans-serif" font-size="14" fill="#333">진폭</text>
      <rect x="80" y="45" width="200" height="20" rx="10" fill="#e0e0e0"/>
      <circle cx="140" cy="55" r="12" fill="#1a73e8"/>
      <text x="290" y="58" font-family="Arial, sans-serif" font-size="14" fill="#666">2.0 mA</text>
      
      <!-- 펄스 폭 -->
      <text x="0" y="95" font-family="Arial, sans-serif" font-size="14" fill="#333">펄스 폭</text>
      <rect x="80" y="85" width="200" height="20" rx="10" fill="#e0e0e0"/>
      <circle cx="200" cy="95" r="12" fill="#1a73e8"/>
      <text x="290" y="98" font-family="Arial, sans-serif" font-size="14" fill="#666">300 μs</text>
      
      <!-- 듀티 사이클 -->
      <text x="0" y="135" font-family="Arial, sans-serif" font-size="14" fill="#333">듀티 사이클</text>
      <rect x="80" y="125" width="200" height="20" rx="10" fill="#e0e0e0"/>
      <circle cx="180" cy="135" r="12" fill="#1a73e8"/>
      <text x="290" y="138" font-family="Arial, sans-serif" font-size="14" fill="#666">50%</text>
    </g>
    
    <!-- 프로토콜 선택 -->
    <g transform="translate(30, 230)">
      <text x="0" y="0" font-family="Arial, sans-serif" font-size="14" fill="#333">자극 프로토콜</text>
      <rect x="0" y="10" width="300" height="35" rx="5" fill="#f5f5f5" stroke="#ddd"/>
      <text x="10" y="33" font-family="Arial, sans-serif" font-size="14" fill="#666">표준 20Hz 신경재생 프로토콜</text>
      <polygon points="280,20 280,35 290,27.5" fill="#666"/>
    </g>
    
    <!-- 제어 버튼 -->
    <g transform="translate(80, 280)">
      <rect x="0" y="0" width="80" height="35" rx="5" fill="#34a853"/>
      <text x="40" y="23" font-family="Arial, sans-serif" font-size="14" text-anchor="middle" fill="white">시작</text>
      
      <rect x="100" y="0" width="80" height="35" rx="5" fill="#ea4335"/>
      <text x="140" y="23" font-family="Arial, sans-serif" font-size="14" text-anchor="middle" fill="white">정지</text>
    </g>
  </g>
  
  <!-- 회복 지표 추적 패널 -->
  <g transform="translate(420, 450)">
    <rect width="360" height="320" rx="10" fill="white" stroke="#e0e0e0" stroke-width="2"/>
    <text x="20" y="35" font-family="Arial, sans-serif" font-size="18" font-weight="bold">회복 지표</text>
    
    <!-- 그래프 영역 -->
    <g transform="translate(40, 70)">
      <rect width="280" height="180" fill="#fafafa" stroke="#ddd"/>
      
      <!-- 축 -->
      <line x1="0" y1="180" x2="280" y2="180" stroke="#333" stroke-width="2"/>
      <line x1="0" y1="0" x2="0" y2="180" stroke="#333" stroke-width="2"/>
      
      <!-- 회복 곡선 -->
      <path d="M 0 180 Q 70 150, 140 100 T 280 40" stroke="#1a73e8" stroke-width="3" fill="none"/>
      <path d="M 0 180 Q 50 170, 100 140 T 200 90" stroke="#34a853" stroke-width="3" fill="none" stroke-dasharray="5,5"/>
      
      <!-- 범례 -->
      <g transform="translate(0, 200)">
        <line x1="0" y1="10" x2="30" y2="10" stroke="#1a73e8" stroke-width="3"/>
        <text x="35" y="14" font-family="Arial, sans-serif" font-size="12" fill="#666">전기자극 그룹</text>
        
        <line x1="150" y1="10" x2="180" y2="10" stroke="#34a853" stroke-width="3" stroke-dasharray="5,5"/>
        <text x="185" y="14" font-family="Arial, sans-serif" font-size="12" fill="#666">대조군</text>
      </g>
      
      <!-- 축 레이블 -->
      <text x="140" y="235" font-family="Arial, sans-serif" font-size="12" text-anchor="middle" fill="#666">시간 (일)</text>
      <text x="-90" y="-10" font-family="Arial, sans-serif" font-size="12" text-anchor="middle" fill="#666" transform="rotate(-90)">기능 회복 (%)</text>
    </g>
  </g>
  
  <!-- 상태 지표 패널 -->
  <g transform="translate(810, 450)">
    <rect width="360" height="320" rx="10" fill="white" stroke="#e0e0e0" stroke-width="2"/>
    <text x="20" y="35" font-family="Arial, sans-serif" font-size="18" font-weight="bold">시스템 상태</text>
    
    <!-- 상태 표시기들 -->
    <g transform="translate(30, 70)">
      <!-- 연결 상태 -->
      <circle cx="15" cy="15" r="8" fill="#34a853"/>
      <text x="35" y="20" font-family="Arial, sans-serif" font-size="14" fill="#333">시스템 연결됨</text>
      
      <!-- 자극 상태 -->
      <circle cx="15" cy="45" r="8" fill="#fbbc04"/>
      <text x="35" y="50" font-family="Arial, sans-serif" font-size="14" fill="#333">자극 대기 중</text>
      
      <!-- 데이터 수집 -->
      <circle cx="15" cy="75" r="8" fill="#34a853"/>
      <text x="35" y="80" font-family="Arial, sans-serif" font-size="14" fill="#333">데이터 수집 중</text>
    </g>
    
    <!-- 통계 정보 -->
    <g transform="translate(30, 180)">
      <rect width="300" height="2" fill="#e0e0e0"/>
      
      <text x="0" y="30" font-family="Arial, sans-serif" font-size="14" fill="#666">총 자극 시간: 3시간 42분</text>
      <text x="0" y="55" font-family="Arial, sans-serif" font-size="14" fill="#666">수집된 데이터: 1.2 GB</text>
      <text x="0" y="80" font-family="Arial, sans-serif" font-size="14" fill="#666">마지막 업데이트: 2분 전</text>
    </g>
    
    <!-- 내보내기 버튼 -->
    <g transform="translate(80, 280)">
      <rect x="0" y="0" width="180" height="35" rx="5" fill="#1a73e8"/>
      <text x="90" y="23" font-family="Arial, sans-serif" font-size="14" text-anchor="middle" fill="white">데이터 내보내기</text>
    </g>
  </g>
  
  <!-- 그라디언트 정의 -->
  <defs>
    <linearGradient id="spectrogram" x1="0%" y1="0%" x2="0%" y2="100%">
      <stop offset="0%" style="stop-color:#ea4335;stop-opacity:1" />
      <stop offset="33%" style="stop-color:#fbbc04;stop-opacity:1" />
      <stop offset="66%" style="stop-color:#34a853;stop-opacity:1" />
      <stop offset="100%" style="stop-color:#1a73e8;stop-opacity:1" />
    </linearGradient>
  </defs>
</svg>